<svg id="Слой_1" data-name="Слой 1" xmlns="http://www.w3.org/2000/svg" viewBox="0 0 61.25 59.25"><defs><style>.cls-1{fill:#e3b873;}.cls-2{fill:none;stroke:#fff;stroke-width:8px;}.cls-3{fill:#fff;}</style></defs><title>2</title><rect class="cls-1" x="8.82" y="8.72" width="42.86" height="41.76" rx="20.88" ry="20.88"/><rect class="cls-2" x="4.82" y="4.72" width="50.86" height="49.76" rx="24.88" ry="24.88"/><path class="cls-3" d="M25.12,36.18a4.74,4.74,0,0,1-2.65-.77,5.34,5.34,0,0,1-1.89-2.25,8.46,8.46,0,0,1-.68-3.55,8.33,8.33,0,0,1,.68-3.53,5.32,5.32,0,0,1,1.89-2.27,4.91,4.91,0,0,1,5.29,0,5.2,5.2,0,0,1,1.87,2.27,8.15,8.15,0,0,1,.7,3.53,8.27,8.27,0,0,1-.7,3.55,5.22,5.22,0,0,1-1.87,2.25A4.74,4.74,0,0,1,25.12,36.18Zm0-.36q2.07,0,2.07-6.21T25.12,23.4q-2.07,0-2.07,6.21T25.12,35.82Zm6.57-.72a4.4,4.4,0,0,1,.41-1.93,6.15,6.15,0,0,1,1-1.53q.61-.65,1.6-1.53t1.44-1.35a5.68,5.68,0,0,0,.88-1.24A3.27,3.27,0,0,0,37.43,26a2.74,2.74,0,0,0-.58-1.85,1.88,1.88,0,0,0-1.49-.67,4.11,4.11,0,0,0-1.06.14l-.38.13v2.88l-.23.05-.49,0a1.25,1.25,0,0,1-1.35-1.35,1.77,1.77,0,0,1,.43-1.12,3.2,3.2,0,0,1,1.31-.88A5.88,5.88,0,0,1,35.72,23a5.56,5.56,0,0,1,3.6,1,3.34,3.34,0,0,1,1.17,2.72,3.13,3.13,0,0,1-.58,1.89,4.83,4.83,0,0,1-1.39,1.31,21.6,21.6,0,0,1-2.18,1.19q-1.15.56-1.87,1a7,7,0,0,0-1.31,1,3.42,3.42,0,0,0-.85,1.35H39a3.37,3.37,0,0,1,.61-1.62,2.53,2.53,0,0,1,.47-.54h.54v3.6H31.69Z"/></svg>