<svg id="Слой_1" data-name="Слой 1" xmlns="http://www.w3.org/2000/svg" viewBox="0 0 61.25 59.25"><defs><style>.cls-1{fill:#e3b873;}.cls-2{fill:none;stroke:#fff;stroke-width:8px;}.cls-3{fill:#fff;}</style></defs><title>3</title><rect class="cls-1" x="8.82" y="8.72" width="42.86" height="41.76" rx="20.88" ry="20.88"/><rect class="cls-2" x="4.82" y="4.72" width="50.86" height="49.76" rx="24.88" ry="24.88"/><path class="cls-3" d="M25.12,36.18a4.74,4.74,0,0,1-2.65-.77,5.34,5.34,0,0,1-1.89-2.25,8.46,8.46,0,0,1-.68-3.55,8.33,8.33,0,0,1,.68-3.53,5.32,5.32,0,0,1,1.89-2.27,4.91,4.91,0,0,1,5.29,0,5.2,5.2,0,0,1,1.87,2.27,8.15,8.15,0,0,1,.7,3.53,8.27,8.27,0,0,1-.7,3.55,5.22,5.22,0,0,1-1.87,2.25A4.74,4.74,0,0,1,25.12,36.18Zm0-.36q2.07,0,2.07-6.21T25.12,23.4q-2.07,0-2.07,6.21T25.12,35.82Zm10.35.36a5.88,5.88,0,0,1-2.12-.34A3.2,3.2,0,0,1,32,35a1.77,1.77,0,0,1-.43-1.12,1.31,1.31,0,0,1,.36-1,1.34,1.34,0,0,1,1-.38,1.18,1.18,0,0,1,.29,0l.2,0,.23,0v2.88l.38.14a4.09,4.09,0,0,0,1.06.13A2.43,2.43,0,0,0,37,35a3.39,3.39,0,0,0,.68-2.3,3.59,3.59,0,0,0-.67-2.36,2.16,2.16,0,0,0-1.76-.79h-.9v-.45h.9a1.63,1.63,0,0,0,1.35-.72,3.4,3.4,0,0,0,.54-2.07,3.32,3.32,0,0,0-.56-2.07,1.72,1.72,0,0,0-1.42-.72,2.83,2.83,0,0,0-.9.14l-.36.13v2.88l-.23.05-.49,0a1.25,1.25,0,0,1-1.35-1.35,1.75,1.75,0,0,1,.43-1.1,3.07,3.07,0,0,1,1.26-.88,5.08,5.08,0,0,1,2-.36,6.45,6.45,0,0,1,2.56.45,3.48,3.48,0,0,1,1.58,1.17,2.68,2.68,0,0,1,.54,1.62,2.44,2.44,0,0,1-.52,1.64,3.73,3.73,0,0,1-1.37,1,6,6,0,0,1-1.89.38v.09a7.12,7.12,0,0,1,2.16.41,3,3,0,0,1,2.16,2.92,3,3,0,0,1-1.31,2.56A6.76,6.76,0,0,1,35.47,36.18Z"/></svg>