<svg id="Слой_1" data-name="Слой 1" xmlns="http://www.w3.org/2000/svg" viewBox="0 0 61.25 59.25"><defs><style>.cls-1{fill:#e3b873;}.cls-2{fill:none;stroke:#fff;stroke-width:8px;}.cls-3{fill:#fff;}</style></defs><title>4</title><rect class="cls-1" x="8.82" y="8.72" width="42.86" height="41.76" rx="20.88" ry="20.88"/><rect class="cls-2" x="4.82" y="4.72" width="50.86" height="49.76" rx="24.88" ry="24.88"/><path class="cls-3" d="M25,36.19a4.74,4.74,0,0,1-2.65-.77,5.34,5.34,0,0,1-1.89-2.25,8.46,8.46,0,0,1-.68-3.55,8.33,8.33,0,0,1,.68-3.53,5.32,5.32,0,0,1,1.89-2.27,4.91,4.91,0,0,1,5.29,0,5.2,5.2,0,0,1,1.87,2.27,8.15,8.15,0,0,1,.7,3.53,8.27,8.27,0,0,1-.7,3.55,5.22,5.22,0,0,1-1.87,2.25A4.74,4.74,0,0,1,25,36.19Zm0-.36q2.07,0,2.07-6.21T25,23.41Q23,23.41,23,29.62T25,35.83Zm10.26.09v-.27l1.26-.36v-2.7H31.43l-.36-.54,6.75-8.91h1.71v8.64h1.89v.81H39.53v2.7l1.26.36v.27Zm-3.24-4.14h4.5V25.84Z"/></svg>