<svg id="Слой_1" data-name="Слой 1" xmlns="http://www.w3.org/2000/svg" viewBox="0 0 34 32.75"><defs><style>.cls-1{fill:#fff;}</style></defs><title>days</title><path class="cls-1" d="M24.6,2.78A2.81,2.81,0,0,0,21.83.58a.56.56,0,0,0-.57.55.56.56,0,0,0,.57.55,1.68,1.68,0,0,1,1.7,1.65A1.68,1.68,0,0,1,21.83,5a.55.55,0,1,0,0,1.1,2.81,2.81,0,0,0,2.77-2.2H32V8.83H1.48V3.88h9.61a.55.55,0,1,0,0-1.1h-1a1.7,1.7,0,0,1,3.29.55A1.68,1.68,0,0,1,11.66,5a.55.55,0,1,0,0,1.1,2.79,2.79,0,0,0,2.83-2.75,2.83,2.83,0,0,0-5.59-.55H.35V31.93H33.14V2.78Zm7.4,28H1.48V9.93H32Z"/><path class="cls-1" d="M15.17,1.68a1.68,1.68,0,0,1,1.7,1.65A1.68,1.68,0,0,1,15.17,5a.55.55,0,1,0,0,1.1A2.79,2.79,0,0,0,18,3.33,2.79,2.79,0,0,0,15.17.58a.56.56,0,0,0-.57.55A.56.56,0,0,0,15.17,1.68Z"/><path class="cls-1" d="M18.51,1.68a1.68,1.68,0,0,1,1.7,1.65A1.68,1.68,0,0,1,18.51,5a.55.55,0,1,0,0,1.1,2.79,2.79,0,0,0,2.83-2.75A2.79,2.79,0,0,0,18.51.58a.56.56,0,0,0-.57.55A.56.56,0,0,0,18.51,1.68Z"/><path class="cls-1" d="M4.52,14.23H17a.55.55,0,1,0,0-1.1H4.52a.55.55,0,1,0,0,1.1Z"/><path class="cls-1" d="M4.52,18.68h5.65a.55.55,0,1,0,0-1.1H4.52a.55.55,0,1,0,0,1.1Z"/><path class="cls-1" d="M13.37,18.6a.55.55,0,0,0,0-.78.6.6,0,0,0-.8,0,.55.55,0,0,0,0,.78.58.58,0,0,0,.8,0Z"/><path class="cls-1" d="M15.28,18.13a.56.56,0,0,0,.57.55h8.48a.55.55,0,1,0,0-1.1H15.84A.56.56,0,0,0,15.28,18.13Z"/><path class="cls-1" d="M27.78,17.52a.55.55,0,0,0,0-.78.6.6,0,0,0-.8,0,.55.55,0,0,0,0,.78.58.58,0,0,0,.8,0Z"/><path class="cls-1" d="M6.6,22.74a.56.56,0,0,0,.57.55h8.48a.55.55,0,1,0,0-1.1H7.16A.56.56,0,0,0,6.6,22.74Z"/><path class="cls-1" d="M4.93,23.12a.55.55,0,0,0,0-.78.6.6,0,0,0-.8,0,.55.55,0,0,0,0,.78.58.58,0,0,0,.8,0Z"/><path class="cls-1" d="M18.18,22.74a.56.56,0,0,0,.57.55h8.48a.55.55,0,1,0,0-1.1H18.74A.56.56,0,0,0,18.18,22.74Z"/><path class="cls-1" d="M18.47,26.35H4.34a.55.55,0,1,0,0,1.1H18.47a.55.55,0,1,0,0-1.1Z"/><path class="cls-1" d="M21.9,27.45h5.65a.55.55,0,1,0,0-1.1H21.9a.55.55,0,1,0,0,1.1Z"/></svg>