<svg id="Слой_1" data-name="Слой 1" xmlns="http://www.w3.org/2000/svg" viewBox="0 0 34.75 35.13"><defs><style>.cls-1,.cls-2{fill:#fff;stroke:#fff;}.cls-1{stroke-linecap:round;stroke-linejoin:round;stroke-width:0.5px;}.cls-2{stroke-width:0.25px;}</style></defs><title>s</title><path class="cls-1" d="M5,1.38A.39.39,0,0,1,5.4,1H34.06a.39.39,0,0,1,.4.38V29a.4.4,0,0,1-.8,0V1.76H5.4A.39.39,0,0,1,5,1.38Z"/><path class="cls-1" d="M13.18,1.12a.39.39,0,0,1,0,.56L8.44,6.41a.39.39,0,0,1-.56-.56l4.74-4.74A.39.39,0,0,1,13.18,1.12Z"/><path class="cls-1" d="M19.59,1a.39.39,0,0,1,0,.56L9.33,12a.39.39,0,1,1-.56-.56L19,1.05A.4.4,0,0,1,19.59,1Z"/><path class="cls-1" d="M26.66,1.12a.39.39,0,0,1,0,.56L10.2,17.87a.39.39,0,1,1-.55-.56L26.1,1.11A.39.39,0,0,1,26.66,1.12Z"/><path class="cls-1" d="M34.08,1.12a.39.39,0,0,1,0,.56L11.44,24.32a.39.39,0,0,1-.56-.56L33.52,1.12A.39.39,0,0,1,34.08,1.12Z"/><path class="cls-1" d="M34.08,9.45a.39.39,0,0,1,0,.56L17.49,26.6a.39.39,0,0,1-.56-.56L33.52,9.45A.39.39,0,0,1,34.08,9.45Z"/><path class="cls-1" d="M34.08,16.31a.39.39,0,0,1,0,.56l-10,10a.39.39,0,0,1-.56-.56l10-10A.39.39,0,0,1,34.08,16.31Z"/><path class="cls-1" d="M34.34,23a.39.39,0,0,1,0,.56L30,27.87a.39.39,0,0,1-.56-.56L33.79,23A.39.39,0,0,1,34.34,23Z"/><path class="cls-2" d="M5,31h.13V7.14L6.75,8.76A.52.52,0,1,0,7.49,8L5,5.52a.52.52,0,0,0-.74,0L1.72,8a.52.52,0,1,0,.74.74L4.09,7.14V31H5Z"/><path class="cls-2" d="M4,30.42v.13H28l-1.63,1.63a.52.52,0,0,0,.74.74l2.53-2.51a.52.52,0,0,0,0-.74l-2.53-2.51a.52.52,0,1,0-.74.74L28,29.5H4v.91Z"/></svg>